# xmcd
#
# Track frame offsets:
# 150
# 15377
# 29661
# 43484
# 59168
# 70196
# 82152
# 97342
# 109241
# 123401
# 137648
# 150361
# 164407
# 176582
# 186797
# 198573
# 211179
# 223545
# 235217
# 250030
#
# Disc length: 3518 seconds
#
#
# Revision: 0
# Processed by: cddbd v1.5.2PL0 Copyright (c) Steve Scherf et al.
# Submitted via: FreeRIP 2.951 
#
DISCID=2b0dbc14
DTITLE=Muddy Waters - Got My Mojo Working (Disk 2)
DYEAR=1900
DGENRE=Blues
TTITLE0=They Call Me Muddy Waters
TTITLE1=Blow Wind Blow
TTITLE2=Who's Gonna Be Your Sweet Man
TTITLE3=Iodine In My Coffee
TTITLE4=Gone To Main Street
TTITLE5=Flood
TTITLE6=Standing Around Crying
TTITLE7=My Life Is Ruined
TTITLE8=Sad, Sad Day
TTITLE9=Country Boy
TTITLE10=Appealing Blues (Hello Little Girl)
TTITLE11=You're Gonna Need My Help I Said
TTITLE12=My Fault
TTITLE13=Mean Red Spider
TTITLE14=Kind-Hearted Woman
TTITLE15=Train Fare Home Blues
TTITLE16=Canary Bird
TTITLE17=Mean Disposition
TTITLE18=Streamline Woman
TTITLE19=Screaming And Crying
EXTD=Studio 17
EXTT0=
EXTT1=
EXTT2=
EXTT3=
EXTT4=
EXTT5=
EXTT6=
EXTT7=
EXTT8=
EXTT9=
EXTT10=
EXTT11=
EXTT12=
EXTT13=
EXTT14=
EXTT15=
EXTT16=
EXTT17=
EXTT18=
EXTT19=
PLAYORDER=
